/*
 * IncMusic.h
 *
 * Created: 22/03/2020 19:17:36
 *  Author: gubeb
 */ 


#ifndef INCMUSIC_H_
#define INCMUSIC_H_


Song_to_play mario_main_song;

//by Prince @ princetronics.com

int mario_main[] = {
	NOTE_E7, NOTE_E7, 0, NOTE_E7,
	0, NOTE_C7, NOTE_E7, 0,
	NOTE_G7, 0, 0,  0,
	NOTE_G6, 0, 0, 0,
	
	NOTE_C7, 0, 0, NOTE_G6,
	0, 0, NOTE_E6, 0,
	0, NOTE_A6, 0, NOTE_B6,
	0, NOTE_AS6, NOTE_A6, 0,
	
	NOTE_G6, NOTE_E7, NOTE_G7,
	NOTE_A7, 0, NOTE_F7, NOTE_G7,
	0, NOTE_E7, 0, NOTE_C7,
	NOTE_D7, NOTE_B6, 0, 0,
	
	NOTE_C7, 0, 0, NOTE_G6,
	0, 0, NOTE_E6, 0,
	0, NOTE_A6, 0, NOTE_B6,
	0, NOTE_AS6, NOTE_A6, 0,
	
	NOTE_G6, NOTE_E7, NOTE_G7,
	NOTE_A7, 0, NOTE_F7, NOTE_G7,
	0, NOTE_E7, 0, NOTE_C7,
	NOTE_D7, NOTE_B6, 0, 0
};


int mario_main_tempo[] = {
	12, 12, 12, 12,
	12, 12, 12, 12,
	12, 12, 12, 12,
	12, 12, 12, 12,
	
	12, 12, 12, 12,
	12, 12, 12, 12,
	12, 12, 12, 12,
	12, 12, 12, 12,
	
	9, 9, 9,
	12, 12, 12, 12,
	12, 12, 12, 12,
	12, 12, 12, 12,
	
	12, 12, 12, 12,
	12, 12, 12, 12,
	12, 12, 12, 12,
	12, 12, 12, 12,
	
	9, 9, 9,
	12, 12, 12, 12,
	12, 12, 12, 12,
	12, 12, 12, 12,
};

//By Xitang 2016.06.27  @ github

Song_to_play pirates_of_the_caribean_song;

int pirates_of_the_caribean[] = {
   NOTE_E4, NOTE_G4, NOTE_A4, NOTE_A4, 0, 
   NOTE_A4, NOTE_B4, NOTE_C5, NOTE_C5, 0, 
   NOTE_C5, NOTE_D5, NOTE_B4, NOTE_B4, 0,
   NOTE_A4, NOTE_G4, NOTE_A4, 0,
   
   NOTE_E4, NOTE_G4, NOTE_A4, NOTE_A4, 0, 
   NOTE_A4, NOTE_B4, NOTE_C5, NOTE_C5, 0, 
   NOTE_C5, NOTE_D5, NOTE_B4, NOTE_B4, 0,
   NOTE_A4, NOTE_G4, NOTE_A4, 0,
   
   NOTE_E4, NOTE_G4, NOTE_A4, NOTE_A4, 0, 
   NOTE_A4, NOTE_C5, NOTE_D5, NOTE_D5, 0, 
   NOTE_D5, NOTE_E5, NOTE_F5, NOTE_F5, 0,
   NOTE_E5, NOTE_D5, NOTE_E5, NOTE_A4, 0,
   
   NOTE_A4, NOTE_B4, NOTE_C5, NOTE_C5, 0, 
   NOTE_D5, NOTE_E5, NOTE_A4, 0, 
   NOTE_A4, NOTE_C5, NOTE_B4, NOTE_B4, 0,
   NOTE_C5, NOTE_A4, NOTE_B4, 0,

   NOTE_A4, NOTE_A4, 
   NOTE_A4, NOTE_B4, NOTE_C5, NOTE_C5, 0, 
   NOTE_C5, NOTE_D5, NOTE_B4, NOTE_B4, 0,
   NOTE_A4, NOTE_G4, NOTE_A4, 0,

   NOTE_E4, NOTE_G4, NOTE_A4, NOTE_A4, 0, 
   NOTE_A4, NOTE_B4, NOTE_C5, NOTE_C5, 0, 
   NOTE_C5, NOTE_D5, NOTE_B4, NOTE_B4, 0,
   NOTE_A4, NOTE_G4, NOTE_A4, 0,
   
   NOTE_E4, NOTE_G4, NOTE_A4, NOTE_A4, 0, 
   NOTE_A4, NOTE_C5, NOTE_D5, NOTE_D5, 0, 
   NOTE_D5, NOTE_E5, NOTE_F5, NOTE_F5, 0,
   NOTE_E5, NOTE_D5, NOTE_E5, NOTE_A4, 0,
   
   NOTE_A4, NOTE_B4, NOTE_C5, NOTE_C5, 0, 
   NOTE_D5, NOTE_E5, NOTE_A4, 0, 
   NOTE_A4, NOTE_C5, NOTE_B4, NOTE_B4, 0,
   NOTE_C5, NOTE_A4, NOTE_B4, 0,

   NOTE_E5, 0, 0, NOTE_F5, 0, 0,
   NOTE_E5, NOTE_E5, 0, NOTE_G5, 0, NOTE_E5, NOTE_D5, 0, 0,
   NOTE_D5, 0, 0, NOTE_C5, 0, 0,
   NOTE_B4, NOTE_C5, 0, NOTE_B4, 0, NOTE_A4,

   NOTE_E5, 0, 0, NOTE_F5, 0, 0,
   NOTE_E5, NOTE_E5, 0, NOTE_G5, 0, NOTE_E5, NOTE_D5, 0, 0,
   NOTE_D5, 0, 0, NOTE_C5, 0, 0,
   NOTE_B4, NOTE_C5, 0, NOTE_B4, 0, NOTE_A4
};

int pirates_of_the_caribean_tempo[] = {
  125, 125, 250, 125, 125, 
  125, 125, 250, 125, 125,
  125, 125, 250, 125, 125,
  125, 125, 375, 125, 
  
  125, 125, 250, 125, 125, 
  125, 125, 250, 125, 125,
  125, 125, 250, 125, 125,
  125, 125, 375, 125, 
  
  125, 125, 250, 125, 125, 
  125, 125, 250, 125, 125,
  125, 125, 250, 125, 125,
  125, 125, 125, 250, 125,

  125, 125, 250, 125, 125, 
  250, 125, 250, 125, 
  125, 125, 250, 125, 125,
  125, 125, 375, 375,

  250, 125,
  125, 125, 250, 125, 125,
  125, 125, 250, 125, 125,
  125, 125, 375, 125, 
  
  125, 125, 250, 125, 125, 
  125, 125, 250, 125, 125,
  125, 125, 250, 125, 125,
  125, 125, 375, 125, 
  
  125, 125, 250, 125, 125, 
  125, 125, 250, 125, 125,
  125, 125, 250, 125, 125,
  125, 125, 125, 250, 125,

  125, 125, 250, 125, 125, 
  250, 125, 250, 125, 
  125, 125, 250, 125, 125,
  125, 125, 375, 375,
  
  250, 125, 375, 250, 125, 375,
  125, 125, 125, 125, 125, 125, 125, 125, 375,
  250, 125, 375, 250, 125, 375,
  125, 125, 125, 125, 125, 500,

  250, 125, 375, 250, 125, 375,
  125, 125, 125, 125, 125, 125, 125, 125, 375,
  250, 125, 375, 250, 125, 375,
  125, 125, 125, 125, 125, 500
};

//by Prince @ princetronics.com

Song_to_play underworld_mario_song;

int underworld_mario[] = {
	NOTE_C4, NOTE_C5, NOTE_A3, NOTE_A4,
	NOTE_AS3, NOTE_AS4, 0,
	0,
	NOTE_C4, NOTE_C5, NOTE_A3, NOTE_A4,
	NOTE_AS3, NOTE_AS4, 0,
	0,
	NOTE_F3, NOTE_F4, NOTE_D3, NOTE_D4,
	NOTE_DS3, NOTE_DS4, 0,
	0,
	NOTE_F3, NOTE_F4, NOTE_D3, NOTE_D4,
	NOTE_DS3, NOTE_DS4, 0,
	0, NOTE_DS4, NOTE_CS4, NOTE_D4,
	NOTE_CS4, NOTE_DS4,
	NOTE_DS4, NOTE_GS3,
	NOTE_G3, NOTE_CS4,
	NOTE_C4, NOTE_FS4, NOTE_F4, NOTE_E3, NOTE_AS4, NOTE_A4,
	NOTE_GS4, NOTE_DS4, NOTE_B3,
	NOTE_AS3, NOTE_A3, NOTE_GS3,
	0, 0, 0
};

int underworld_mario_tempo[] = {
	83, 83, 83, 83,
	83, 83, 166,
	333,
	83, 83, 83, 83,
	83, 83, 166,
	333,
	83, 83, 83, 83,
	83, 83, 166,
	333,
	83, 83, 83, 83,
	83, 83, 166,
	166, 55, 55, 55,
	166, 166,
	166, 166,
	166, 166,
	55, 55, 55, 55, 55, 55,
	100, 100, 100,
	100, 100, 100,
	333, 333, 333
};

#endif /* INCMUSIC_H_ */